<svg id="Capa_1" data-name="Capa 1" xmlns="http://www.w3.org/2000/svg" viewBox="0 0 15.22 15.22"><defs><style>.cls-1{fill:#1f191a;}</style></defs><title>Mesa de trabajo 38</title><path class="cls-1" d="M7.61,0A7.61,7.61,0,1,1,2.23,2.23,7.6,7.6,0,0,1,7.61,0Zm5,2.65a7,7,0,1,0,2.06,5,7,7,0,0,0-2.06-5Z"/><path class="cls-1" d="M11.53,8.24V11H10V8.43c0-.64-.23-1.07-.8-1.07a.86.86,0,0,0-.81.58,1.08,1.08,0,0,0-.05.38V11H6.73s0-4.29,0-4.73H8.3v.69h0v0a1.56,1.56,0,0,1,1.42-.78c1,0,1.81.68,1.81,2.13ZM5.08,3.95a.82.82,0,1,0,0,1.63h0a.82.82,0,1,0,0-1.63Zm-.8,7H5.86V6.23H4.29Z"/></svg>