<svg id="Capa_1" data-name="Capa 1" xmlns="http://www.w3.org/2000/svg" viewBox="0 0 15.22 15.22"><defs><style>.cls-1{fill:#1f191a;}</style></defs><title>Mesa de trabajo 36</title><path class="cls-1" d="M7.61,0A7.61,7.61,0,1,1,2.23,2.23,7.6,7.6,0,0,1,7.61,0Zm5,2.65a7,7,0,1,0,2.06,5,7,7,0,0,0-2.06-5Z"/><path class="cls-1" d="M9.63,2.89H8.4A2.15,2.15,0,0,0,6.13,5.21V6.29H4.9a.19.19,0,0,0-.19.19V8a.19.19,0,0,0,.19.19H6.13v3.92a.2.2,0,0,0,.19.19H7.93a.19.19,0,0,0,.19-.19V8.22H9.57A.19.19,0,0,0,9.76,8V6.48a.19.19,0,0,0-.19-.19H8.13V5.37c0-.44.11-.66.68-.66h.83a.19.19,0,0,0,.19-.19V3.08a.19.19,0,0,0-.19-.19Zm0,0"/></svg>