<svg id="Capa_1" data-name="Capa 1" xmlns="http://www.w3.org/2000/svg" viewBox="0 0 165.93 41.5"><defs><style>.cls-1{fill:#91cda7;}</style></defs><title>Mesa de trabajo 35</title><path class="cls-1" d="M9.54,37.63a2.54,2.54,0,0,0,1.7.69c.49,0,1-.26,1-.74,0-1.09-3-.86-3-2.79,0-1.07,1-1.68,2.14-1.68a2.66,2.66,0,0,1,1.91.65l-.46.85a2.16,2.16,0,0,0-1.46-.53c-.49,0-1,.21-1,.72,0,1.06,3,.83,3,2.77,0,1-.84,1.72-2.14,1.72A3.18,3.18,0,0,1,9,38.44Z"/><path class="cls-1" d="M18.2,33.24h1v.5c0,.23,0,.43,0,.43h0a2.15,2.15,0,0,1,2-1.08c1.59,0,2.59,1.26,2.59,3.1s-1.13,3.1-2.68,3.1a2.06,2.06,0,0,1-1.81-1h0a5.06,5.06,0,0,1,0,.51V41.5H18.2ZM21,38.33c.94,0,1.71-.77,1.71-2.12S22,34.1,21,34.1s-1.71.62-1.71,2.13C19.3,37.28,19.88,38.33,21,38.33Z"/><path class="cls-1" d="M31.79,35.47H32v-.1a1.15,1.15,0,0,0-1.3-1.3,3,3,0,0,0-1.65.57l-.47-.83a3.71,3.71,0,0,1,2.21-.7,2.1,2.1,0,0,1,2.34,2.31v3.74H32.13V38.6a4.35,4.35,0,0,1,0-.47h0a2,2,0,0,1-1.89,1.17,1.85,1.85,0,0,1-2-1.8C28.22,35.55,30.79,35.47,31.79,35.47Zm-1.31,2.92a1.79,1.79,0,0,0,1.58-1.88v-.19h-.29c-.85,0-2.4.06-2.4,1.12A1,1,0,0,0,30.48,38.39Z"/><path class="cls-1" d="M46.06,34.73v0A1.82,1.82,0,0,1,45,32.89c0-1.37,1.07-2.13,2.54-2.13a5.29,5.29,0,0,1,1,.13l-.29.92a3.69,3.69,0,0,0-.62-.07A1.3,1.3,0,0,0,46.14,33c0,.51.25,1.3,1.52,1.3h1.53V33.19h1.13v1.12h1.1v1h-1.1v1.1a2.63,2.63,0,0,1-2.85,2.89,2.58,2.58,0,0,1-2.86-2.45A2.21,2.21,0,0,1,46.06,34.73Zm1.42,3.51c1.05,0,1.72-.57,1.72-1.87V35.31H47.62c-1.17,0-1.82.55-1.82,1.47A1.52,1.52,0,0,0,47.48,38.24Z"/><path class="cls-1" d="M62.86,30.91H64v3a4.84,4.84,0,0,1,0,.49h0a2.39,2.39,0,0,1,2.19-1.32c1.39,0,2,.76,2,2.27v3.79H67.07V35.63c0-.83-.17-1.48-1.12-1.48a2,2,0,0,0-1.87,1.46,2.81,2.81,0,0,0-.09.78v2.77H62.86Z"/><path class="cls-1" d="M75.94,33.1a2.52,2.52,0,0,1,2.56,2.77c0,.15,0,.49,0,.49H74.15a1.94,1.94,0,0,0,2,2,2.81,2.81,0,0,0,1.75-.69l.47.83a3.52,3.52,0,0,1-2.29.84A3,3,0,0,1,73,36.2,2.9,2.9,0,0,1,75.94,33.1Zm1.4,2.41A1.4,1.4,0,0,0,75.92,34a1.69,1.69,0,0,0-1.73,1.51Z"/><path class="cls-1" d="M86.46,35.47h.26v-.1a1.15,1.15,0,0,0-1.3-1.3,3,3,0,0,0-1.65.57l-.47-.83a3.7,3.7,0,0,1,2.21-.7,2.1,2.1,0,0,1,2.34,2.31v3.74H86.8V38.6a4.35,4.35,0,0,1,0-.47h0a2,2,0,0,1-1.9,1.17,1.85,1.85,0,0,1-2-1.8C82.9,35.55,85.47,35.47,86.46,35.47Zm-1.31,2.92a1.79,1.79,0,0,0,1.58-1.88v-.19h-.29c-.85,0-2.4.06-2.4,1.12A1,1,0,0,0,85.15,38.39Z"/><path class="cls-1" d="M93,30.91H94.1v6.44c0,.71.28.84.63.84h.2v1a3.28,3.28,0,0,1-.37,0c-.64,0-1.59-.17-1.59-1.66Z"/><path class="cls-1" d="M99.88,34.24h-.77v-.91h.81V31.62H101v1.71h1.42v.91H101v2.63a1.17,1.17,0,0,0,1.26,1.33,1.35,1.35,0,0,0,.27,0v1a3.23,3.23,0,0,1-.4,0A2,2,0,0,1,99.88,37Z"/><path class="cls-1" d="M107.32,30.91h1.13v3a4.84,4.84,0,0,1,0,.49h0a2.39,2.39,0,0,1,2.19-1.32c1.39,0,2,.76,2,2.27v3.79h-1.13V35.63c0-.83-.17-1.48-1.12-1.48a2,2,0,0,0-1.87,1.46,2.81,2.81,0,0,0-.09.78v2.77h-1.13Z"/><path class="cls-1" d="M127.1,33.1a3,3,0,0,1,2.22.86l-.54.8a2.4,2.4,0,0,0-1.64-.68,2,2,0,0,0-2.06,2.1,2,2,0,0,0,2.09,2.13,2.68,2.68,0,0,0,1.82-.79l.45.83a3.24,3.24,0,0,1-2.36.95,3.1,3.1,0,1,1,0-6.19Z"/><path class="cls-1" d="M134.18,30.91h1.13v6.44c0,.71.28.84.63.84h.2v1a3.28,3.28,0,0,1-.37,0c-.64,0-1.59-.17-1.59-1.66Z"/><path class="cls-1" d="M140.76,33.24h1.13v3.53c0,.82.16,1.47,1.11,1.47A2,2,0,0,0,144.92,36V33.24h1.13v5.91H145v-.78a4.29,4.29,0,0,1,0-.43h0a2.39,2.39,0,0,1-2.18,1.36c-1.33,0-2-.7-2-2.27Z"/><path class="cls-1" d="M151.32,30.91h1.13v2.7a5,5,0,0,1,0,.5h0a2.09,2.09,0,0,1,1.89-1c1.59,0,2.6,1.26,2.6,3.1s-1.13,3.1-2.69,3.1a2.12,2.12,0,0,1-1.86-1h0a3.88,3.88,0,0,1,0,.44v.43h-1.08Zm2.77,7.42c.94,0,1.71-.77,1.71-2.12s-.69-2.11-1.67-2.11-1.71.62-1.71,2.13C152.42,37.28,153,38.33,154.09,38.33Z"/><path class="cls-1" d="M12.27,15.92H3.85L1.3,22.78H0L7.42,2.94h1.3l7.42,19.83h-1.3ZM8,4.36s-.42,1.53-.74,2.38l-3,8h7.57l-3-8c-.31-.85-.74-2.38-.74-2.38Z"/><path class="cls-1" d="M23.46,2.94h5.81a7.55,7.55,0,0,1,3.57.59A5.08,5.08,0,0,1,35.58,8.3a5.29,5.29,0,0,1-4,5.47v.06a4,4,0,0,1,.45.71l4.45,8.25H35.07L30.37,14h-5.7v8.78H23.46Zm6.6,9.92c2.61,0,4.25-1.87,4.25-4.56A4,4,0,0,0,32,4.47a6.25,6.25,0,0,0-2.78-.4H24.67v8.78Z"/><path class="cls-1" d="M45.42,2.94h1.19l5.78,12.47c.45,1,1,2.24,1,2.24h.06s.51-1.28,1-2.24L60.15,2.94h1.19l1.59,19.83H61.71L60.49,7.64c-.08-1-.08-2.63-.08-2.63h-.06s-.57,1.67-1,2.63L54,19H52.76L47.46,7.64c-.42-.93-1-2.69-1-2.69h-.06s0,1.73-.09,2.69L45.05,22.78H43.83Z"/><path class="cls-1" d="M114.57,2.94h1.13L127,18.5c.65.91,1.62,2.49,1.62,2.49h.06s-.14-1.5-.14-2.49V2.94h1.22V22.78h-1.13L117.32,7.22c-.65-.91-1.62-2.49-1.62-2.49h-.06s.14,1.5.14,2.49V22.78h-1.22Z"/><path class="cls-1" d="M140.44,2.94h1.22V22.78h-1.22Z"/><path class="cls-1" d="M162,15.92h-8.42l-2.55,6.86h-1.3l7.42-19.83h1.3l7.42,19.83h-1.3ZM157.83,4.36s-.42,1.53-.74,2.38l-3,8h7.57l-3-8c-.31-.85-.74-2.38-.74-2.38Z"/><path class="cls-1" d="M107.55,18.45A13.45,13.45,0,0,0,100,14.68a.62.62,0,0,0-.18,1.22,12.21,12.21,0,0,1,6.4,3,12.41,12.41,0,0,1-15.94.52A13.72,13.72,0,0,0,102.37,5.95a.61.61,0,0,0-.18-.44.62.62,0,0,0-.44-.18A13.45,13.45,0,0,0,93.88,7.9a.62.62,0,0,0,.72,1,12.23,12.23,0,0,1,6.52-2.32A12.4,12.4,0,0,1,90.2,18.18a13.66,13.66,0,0,0-.93-18A.62.62,0,0,0,88.84,0a.65.65,0,0,0-.44.18,13.44,13.44,0,0,0-3.77,7.55.61.61,0,1,0,1.22.18,12.22,12.22,0,0,1,3-6.4,12.36,12.36,0,0,1,.44,15.86A13.66,13.66,0,0,0,76,5.33a.65.65,0,0,0-.43.18.62.62,0,0,0-.18.44V7.26a13.53,13.53,0,0,0,2.37,6.37.62.62,0,0,0,.86.15.62.62,0,0,0,.15-.86,12.27,12.27,0,0,1-2.15-5.74v-.6A12.34,12.34,0,0,1,88.05,17.45a13.63,13.63,0,0,0-17.87,1,.62.62,0,0,0,0,.87l.88.88,0,0a13.57,13.57,0,0,0,15.45,1.15.61.61,0,0,0-.63-1.06,12.34,12.34,0,0,1-14-1l-.42-.42a12.46,12.46,0,0,1,16.76.39l.07.07a13.71,13.71,0,0,0,19.22,0,.61.61,0,0,0,.18-.44A.62.62,0,0,0,107.55,18.45Z"/></svg>