<svg id="Capa_1" data-name="Capa 1" xmlns="http://www.w3.org/2000/svg" viewBox="0 0 229.85 123.53"><defs><style>.cls-1{fill:#fff;}.cls-2{fill:none;stroke:#63b546;stroke-miterlimit:10;stroke-width:2px;}</style></defs><title>Mesa de trabajo 17</title><rect class="cls-1" x="82.75" y="0.08" width="63.75" height="5.61"/><polygon class="cls-1" points="68.93 0 60.74 0 16.65 42.2 5.86 42.2 5.86 0 0.24 0 0.24 90.03 5.86 90.03 5.86 47.83 16.65 47.83 59.91 89.2 60.74 90.03 68.93 90.03 66.13 87.39 21.77 45.02 63.83 4.82 68.93 0"/><polygon class="cls-1" points="88.56 48.84 123.5 48.84 123.5 43.23 82.95 43.23 82.95 89.7 146.67 89.7 146.67 84.08 88.56 84.08 88.56 48.84"/><path class="cls-1" d="M14,123.27H11.85V114.6H2.14v8.67H0V104.85H2.14v7.84h9.71v-7.84H14Z"/><path class="cls-1" d="M55.69,114a10.15,10.15,0,0,1-2.24,7,7.87,7.87,0,0,1-6.22,2.53A8,8,0,0,1,41,121q-2.21-2.49-2.21-7T41,107a8,8,0,0,1,6.3-2.48,7.85,7.85,0,0,1,6.2,2.52A10.14,10.14,0,0,1,55.69,114ZM41,114a8.74,8.74,0,0,0,1.59,5.68,5.66,5.66,0,0,0,4.63,1.93,5.6,5.6,0,0,0,4.63-1.93A8.87,8.87,0,0,0,53.42,114a8.8,8.8,0,0,0-1.56-5.64,5.58,5.58,0,0,0-4.61-1.92,5.69,5.69,0,0,0-4.66,1.93A8.65,8.65,0,0,0,41,114Z"/><path class="cls-1" d="M86.13,123.27H84V106.75H78.15v-1.9H92v1.9H86.13Z"/><path class="cls-1" d="M125.66,123.27H115.39V104.85h10.27v1.9h-8.13v5.94h7.64v1.89h-7.64v6.78h8.13Z"/><path class="cls-1" d="M150.4,123.27V104.85h2.14v16.49h8.13v1.94Z"/><path class="cls-1" d="M194.72,123.27H184.45V104.85h10.27v1.9h-8.13v5.94h7.64v1.89h-7.64v6.78h8.13Z"/><path class="cls-1" d="M229.85,118.37a4.52,4.52,0,0,1-1.76,3.79,7.65,7.65,0,0,1-4.79,1.36,12,12,0,0,1-5-.84v-2.07a13.25,13.25,0,0,0,2.47.76,13,13,0,0,0,2.65.28,5.34,5.34,0,0,0,3.23-.81,2.67,2.67,0,0,0,1.08-2.26,2.91,2.91,0,0,0-.38-1.57,3.58,3.58,0,0,0-1.29-1.13,18,18,0,0,0-2.74-1.17,8.74,8.74,0,0,1-3.67-2.18,4.81,4.81,0,0,1-1.1-3.29,4.09,4.09,0,0,1,1.6-3.39,6.65,6.65,0,0,1,4.23-1.26,12.49,12.49,0,0,1,5.05,1l-.67,1.87a11.43,11.43,0,0,0-4.44-1,4.29,4.29,0,0,0-2.66.73,2.41,2.41,0,0,0-1,2,3.1,3.1,0,0,0,.35,1.57,3.32,3.32,0,0,0,1.19,1.12,14.82,14.82,0,0,0,2.56,1.13,10.16,10.16,0,0,1,4,2.22A4.36,4.36,0,0,1,229.85,118.37Z"/><path class="cls-1" d="M228.33,86.38C220.78,62.11,215.45,53,208.65,47,220.12,44.19,228.4,34.81,228.4,24c0-13.26-12.1-24-27-24L164.33.13h-3V90h.06v0H167V47.83h33.55C208.46,53.24,214,59,222.85,88.05l.84,2h5.77ZM201.55,42.21l-34.54,0V5.62h34.41c11.78,0,21.36,8.26,21.36,18.42S213.26,42.21,201.55,42.21Z"/><rect class="cls-2" x="-184.21" y="-145.32" width="2000" height="3555.94"/></svg>