<svg id="Capa_1" data-name="Capa 1" xmlns="http://www.w3.org/2000/svg" viewBox="0 0 15.22 15.22"><defs><style>.cls-1,.cls-2{fill:#1f191a;}.cls-2{fill-rule:evenodd;}</style></defs><title>Mesa de trabajo 37</title><path class="cls-1" d="M7.61,0A7.61,7.61,0,1,1,2.23,2.23,7.6,7.6,0,0,1,7.61,0Zm5,2.65a7,7,0,1,0,2.06,5,7,7,0,0,0-2.06-5Z"/><path class="cls-1" d="M7.62,6.33a1.31,1.31,0,1,0,1.3,1.32A1.32,1.32,0,0,0,7.62,6.33Z"/><path class="cls-1" d="M11.55,6.17A3.06,3.06,0,0,0,11.34,5,2,2,0,0,0,9.9,3.8,3.68,3.68,0,0,0,9,3.71H6.35a4,4,0,0,0-1.13.13A2,2,0,0,0,3.74,5.49a6.8,6.8,0,0,0-.08,1.3c0,.69,0,1.39,0,2.08A4.16,4.16,0,0,0,3.79,10a2,2,0,0,0,1.67,1.49c.25,0,.52,0,.78.07H9.09a3.1,3.1,0,0,0,1.15-.21,2,2,0,0,0,1.21-1.44,4.41,4.41,0,0,0,.1-.92.53.53,0,0,1,0-.07V6.34C11.56,6.28,11.55,6.22,11.55,6.17ZM7.61,9.68a2,2,0,1,1,2-2A2,2,0,0,1,7.61,9.68ZM9.72,6a.48.48,0,1,1,.48-.47A.47.47,0,0,1,9.72,6Z"/><path class="cls-2" d="M8.92,7.65a1.31,1.31,0,1,1-1.3-1.32A1.31,1.31,0,0,1,8.92,7.65Z"/></svg>