<svg id="Capa_1" data-name="Capa 1" xmlns="http://www.w3.org/2000/svg" viewBox="0 0 177.37 177.37"><defs><style>.cls-1{fill:#d2d2d0;}.cls-2{font-size:13.36px;font-family:Lato-Light, Lato;letter-spacing:0.02em;}.cls-2,.cls-5,.cls-6,.cls-7{fill:#1f191a;}.cls-3{letter-spacing:-0.01em;}.cls-4{letter-spacing:-0.01em;}.cls-6{font-size:59.13px;font-family:Lato-Bold, Lato;font-weight:700;letter-spacing:0.02em;}.cls-7{font-size:31.41px;font-family:Lato-Regular, Lato;letter-spacing:0.02em;}</style></defs><title>Mesa de trabajo 20</title><circle class="cls-1" cx="88.68" cy="88.68" r="87.9"/><text></text><text class="cls-2" transform="translate(37.6 135.69) scale(1.03 1)"><tspan xml:space="preserve"> pa</tspan><tspan class="cls-3" x="17.03" y="0">r</tspan><tspan x="22.27" y="0">a </tspan><tspan class="cls-4" x="31.89" y="0">e</tspan><tspan x="38.58" y="0">xt</tspan><tspan class="cls-3" x="50.04" y="0">r</tspan><tspan x="55.28" y="0">anjeros </tspan></text><path class="cls-5" d="M123.1,66a9.41,9.41,0,0,1-.63,3.54,7.91,7.91,0,0,1-1.68,2.63,7.14,7.14,0,0,1-2.45,1.63,7.75,7.75,0,0,1-2.92.56,8,8,0,0,1-3-.56A7,7,0,0,1,110,72.17a7.43,7.43,0,0,1-1.62-2.63,10.12,10.12,0,0,1-.58-3.54,10.37,10.37,0,0,1,.58-3.59A7.55,7.55,0,0,1,110,59.76a7,7,0,0,1,2.43-1.64,8,8,0,0,1,3-.56,8.11,8.11,0,0,1,3,.56,6.8,6.8,0,0,1,2.44,1.64,7.78,7.78,0,0,1,1.62,2.65A10.17,10.17,0,0,1,123.1,66Zm12.11-7.28a2.7,2.7,0,0,1,.66-.62,1.71,1.71,0,0,1,.93-.22h3.09l-25.3,33a1.92,1.92,0,0,1-.58.49,1.61,1.61,0,0,1-.8.19H110ZM119.74,66a8.91,8.91,0,0,0-.34-2.63,5,5,0,0,0-.93-1.77,3.44,3.44,0,0,0-1.38-1,4.77,4.77,0,0,0-3.36,0,3.35,3.35,0,0,0-1.36,1,5,5,0,0,0-.91,1.77,9.19,9.19,0,0,0-.33,2.63,9,9,0,0,0,.33,2.6,4.72,4.72,0,0,0,.91,1.74,3.34,3.34,0,0,0,1.36,1,4.95,4.95,0,0,0,3.36,0,3.43,3.43,0,0,0,1.38-1,4.75,4.75,0,0,0,.93-1.74A8.7,8.7,0,0,0,119.74,66ZM142.24,83.6a9.33,9.33,0,0,1-.63,3.52,7.94,7.94,0,0,1-1.68,2.62,7.17,7.17,0,0,1-2.44,1.63,7.67,7.67,0,0,1-2.91.56,8,8,0,0,1-3-.56,7.05,7.05,0,0,1-2.43-1.63,7.44,7.44,0,0,1-1.62-2.62,10,10,0,0,1-.58-3.52A10.44,10.44,0,0,1,127.5,80a7.51,7.51,0,0,1,1.62-2.67,7,7,0,0,1,2.43-1.64,8.41,8.41,0,0,1,6.05,0A7,7,0,0,1,140,77.33,7.53,7.53,0,0,1,141.66,80,10.47,10.47,0,0,1,142.24,83.6Zm-3.33,0a9,9,0,0,0-.34-2.64,4.86,4.86,0,0,0-.93-1.77,3.48,3.48,0,0,0-1.38-1,4.77,4.77,0,0,0-3.36,0,3.4,3.4,0,0,0-1.36,1,4.84,4.84,0,0,0-.91,1.77,9.32,9.32,0,0,0-.33,2.64,8.85,8.85,0,0,0,.33,2.58,4.73,4.73,0,0,0,.91,1.73,3.33,3.33,0,0,0,1.36,1,4.95,4.95,0,0,0,3.36,0,3.42,3.42,0,0,0,1.38-1,4.76,4.76,0,0,0,.93-1.73A8.55,8.55,0,0,0,138.9,83.6Z"/><text class="cls-6" transform="translate(31.93 95.62) scale(1.03 1)">21 </text><text class="cls-7" transform="translate(33.63 122.01) scale(1.03 1)">tax free</text></svg>